# xmcd
#
# Track frame offsets: 
#        150
#        14233
#        27429
#        39486
#        52222
#        69872
#        83798
#        95892
#        114883
#        127599
#        140201
#
# Disc length: 2026 seconds
#
# Revision: 0
# Processed by: cddbd v1.5.2PL0 Copyright (c) Steve Scherf et al.
# Submitted via: ExactAudioCopy v1.0b1
#
DISCID=9807e80b
DTITLE=Kiss  - Dressed to Kill First U.S Pressing Blue Label Casablanc
DTITLE=a NBLP-7016 Vinyl  
DYEAR=1900
DGENRE=
TTITLE0=Room Service
TTITLE1=Two Timer
TTITLE2=Ladies In Waiting
TTITLE3=Getaway
TTITLE4=Rock Bottom
TTITLE5=C'mon And Love Me
TTITLE6=Anything For My Baby
TTITLE7=She
TTITLE8=Love Her All I Can
TTITLE9=Rock And Roll All Nite
TTITLE10=Rock and Roll All Night (U.S Promo Mono)
EXTD=
EXTT0=
EXTT1=
EXTT2=
EXTT3=
EXTT4=
EXTT5=
EXTT6=
EXTT7=
EXTT8=
EXTT9=
EXTT10=
PLAYORDER=
